<svg xmlns="http://www.w3.org/2000/svg" viewBox="0 0 64 64">
<defs>
<style type="text/css" id="current-color-scheme">
.ColorScheme-Text { color:#141413; }
.ColorScheme-NeutralText { color:#A06A2C; }
.ColorScheme-NegativeText { color:#B5473A; }
</style>
</defs>
<path d="M7 16h20a3 3 0 0 1 3 3v14a3 3 0 0 1-3 3h-20a3 3 0 0 1-3-3v-14a3 3 0 0 1 3-3zM17.0 36v5M10.0 41h14" fill="none" stroke="currentColor" class="ColorScheme-Text" opacity="0.86" stroke-width="2.2" stroke-linecap="round" stroke-linejoin="round"/>
<path d="M37 16h20a3 3 0 0 1 3 3v14a3 3 0 0 1-3 3h-20a3 3 0 0 1-3-3v-14a3 3 0 0 1 3-3zM47.0 36v5M40.0 41h14" fill="none" stroke="currentColor" class="ColorScheme-Text" opacity="0.473" stroke-width="2.2" stroke-linecap="round" stroke-linejoin="round"/>
<path d="M21 26h-9M15 22l-4 4 4 4" fill="none" stroke="#D97757" stroke-width="2.6" stroke-linecap="round" stroke-linejoin="round"/>
</svg>
