<svg xmlns="http://www.w3.org/2000/svg" viewBox="0 0 24 24">
<defs>
<style type="text/css" id="current-color-scheme">
.ColorScheme-Text { color:#141413; }
.ColorScheme-NeutralText { color:#A06A2C; }
.ColorScheme-NegativeText { color:#B5473A; }
</style>
</defs>
<path d="M8.5 5H7a2 2 0 0 0-2 2v12a2 2 0 0 0 2 2h10a2 2 0 0 0 2-2V7a2 2 0 0 0-2-2h-1.5M9.8 3h4.4a1.3 1.3 0 0 1 1.3 1.3v1.4A1.3 1.3 0 0 1 14.2 7H9.8a1.3 1.3 0 0 1-1.3-1.3V4.3A1.3 1.3 0 0 1 9.8 3z" fill="none" stroke="currentColor" class="ColorScheme-Text" opacity="0.86" stroke-width="1.6" stroke-linecap="round" stroke-linejoin="round"/>
</svg>
